<svg xmlns="http://www.w3.org/2000/svg" viewBox="0 0 1024 1024" width="1024" height="1024">
  <!-- Marco Polo — brushed-silver / argent compass rose (light mode). -->
  <defs>
    <linearGradient id="agL" x1="0" y1="0" x2="1" y2="1">
      <stop offset="0" stop-color="#ffffff"/>
      <stop offset="0.5" stop-color="#e4e8ec"/>
      <stop offset="1" stop-color="#c1c7cf"/>
    </linearGradient>
    <linearGradient id="agD" x1="0" y1="0" x2="1" y2="1">
      <stop offset="0" stop-color="#a9afb7"/>
      <stop offset="1" stop-color="#6d747d"/>
    </linearGradient>
    <linearGradient id="agML" x1="0" y1="0" x2="1" y2="1">
      <stop offset="0" stop-color="#f1f3f5"/>
      <stop offset="1" stop-color="#ccd1d7"/>
    </linearGradient>
    <linearGradient id="agMD" x1="0" y1="0" x2="1" y2="1">
      <stop offset="0" stop-color="#b7bdc5"/>
      <stop offset="1" stop-color="#868d96"/>
    </linearGradient>
    <radialGradient id="agHub" cx="0.4" cy="0.34" r="0.8">
      <stop offset="0" stop-color="#ffffff"/>
      <stop offset="0.55" stop-color="#ccd1d8"/>
      <stop offset="1" stop-color="#7c838c"/>
    </radialGradient>
  </defs>

  <!-- outer ring -->
  <circle cx="512" cy="512" r="374" fill="none" stroke="#c7ccd3" stroke-width="7" opacity="0.7"/>
  <circle cx="512" cy="512" r="374" fill="none" stroke="#ffffff" stroke-width="2.5" opacity="0.6"/>
  <circle cx="512" cy="512" r="330" fill="none" stroke="#b9bfc7" stroke-width="2" opacity="0.4"/>

  <!-- intercardinal (short) points -->
  <g>
    <g transform="rotate(45 512 512)">
      <path d="M512 300 L490 472 L512 512 Z" fill="url(#agML)"/>
      <path d="M512 300 L534 472 L512 512 Z" fill="url(#agMD)"/>
    </g>
    <g transform="rotate(135 512 512)">
      <path d="M512 300 L490 472 L512 512 Z" fill="url(#agML)"/>
      <path d="M512 300 L534 472 L512 512 Z" fill="url(#agMD)"/>
    </g>
    <g transform="rotate(225 512 512)">
      <path d="M512 300 L490 472 L512 512 Z" fill="url(#agML)"/>
      <path d="M512 300 L534 472 L512 512 Z" fill="url(#agMD)"/>
    </g>
    <g transform="rotate(315 512 512)">
      <path d="M512 300 L490 472 L512 512 Z" fill="url(#agML)"/>
      <path d="M512 300 L534 472 L512 512 Z" fill="url(#agMD)"/>
    </g>
  </g>

  <!-- cardinal (long) points -->
  <g>
    <g>
      <path d="M512 148 L466 466 L512 512 Z" fill="url(#agL)"/>
      <path d="M512 148 L558 466 L512 512 Z" fill="url(#agD)"/>
    </g>
    <g transform="rotate(90 512 512)">
      <path d="M512 148 L466 466 L512 512 Z" fill="url(#agL)"/>
      <path d="M512 148 L558 466 L512 512 Z" fill="url(#agD)"/>
    </g>
    <g transform="rotate(180 512 512)">
      <path d="M512 148 L466 466 L512 512 Z" fill="url(#agL)"/>
      <path d="M512 148 L558 466 L512 512 Z" fill="url(#agD)"/>
    </g>
    <g transform="rotate(270 512 512)">
      <path d="M512 148 L466 466 L512 512 Z" fill="url(#agL)"/>
      <path d="M512 148 L558 466 L512 512 Z" fill="url(#agD)"/>
    </g>
  </g>

  <!-- hub -->
  <circle cx="512" cy="512" r="60" fill="url(#agHub)"/>
  <circle cx="512" cy="512" r="60" fill="none" stroke="#ffffff" stroke-opacity="0.55" stroke-width="2.5"/>
  <circle cx="512" cy="512" r="21" fill="#5c636c"/>
  <circle cx="503" cy="503" r="8" fill="#ffffff" opacity="0.85"/>
</svg>
